<svg height="512pt" viewBox="0 -9 512 512" width="512pt" xmlns="http://www.w3.org/2000/svg"><path d="m512 182.078125-176.894531-25.160156-79.105469-156.917969-79.105469 156.917969-176.894531 25.160156 128 122.148437-30.21875 172.464844 71.171875-36.628906h174.09375l71.171875 36.628906-30.21875-172.464844zm0 0" fill="#edcd43"/><path d="m353.101562 397.242188c0 53.628906-43.472656 97.101562-97.101562 97.101562s-97.101562-43.472656-97.101562-97.101562c0-53.628907 43.472656-97.105469 97.101562-97.105469s97.101562 43.476562 97.101562 97.105469zm0 0" fill="#61b872"/><g fill="#fff"><path d="m256 459.035156c-4.871094 0-8.828125-3.957031-8.828125-8.828125v-105.929687c0-4.875 3.957031-8.828125 8.828125-8.828125s8.828125 3.953125 8.828125 8.828125v105.929687c0 4.871094-3.957031 8.828125-8.828125 8.828125zm0 0"/><path d="m308.964844 406.070312h-105.929688c-4.875 0-8.828125-3.957031-8.828125-8.828124 0-4.875 3.953125-8.828126 8.828125-8.828126h105.929688c4.875 0 8.828125 3.953126 8.828125 8.828126 0 4.871093-3.953125 8.828124-8.828125 8.828124zm0 0"/></g></svg>